<svg width="56" height="56" viewBox="0 0 56 56" fill="none" xmlns="http://www.w3.org/2000/svg">
<path d="M50.75 28C50.75 40.5645 40.5645 50.75 28 50.75C15.4355 50.75 5.25 40.5645 5.25 28C5.25 15.4355 15.4355 5.25 28 5.25C40.5645 5.25 50.75 15.4355 50.75 28Z" fill="#1E2028" fill-opacity="0.3"/>
<path fill-rule="evenodd" clip-rule="evenodd" d="M53.0833 28C53.0833 41.8531 41.8531 53.0833 28 53.0833C14.1468 53.0833 2.91666 41.8531 2.91666 28C2.91666 14.1468 14.1468 2.91663 28 2.91663C41.8531 2.91663 53.0833 14.1468 53.0833 28ZM28 50.75C40.5645 50.75 50.75 40.5644 50.75 28C50.75 15.4355 40.5645 5.24996 28 5.24996C15.4355 5.24996 5.24999 15.4355 5.24999 28C5.24999 40.5644 15.4355 50.75 28 50.75Z" fill="white" fill-opacity="0.1"/>
<path d="M22.8295 34.6095V21.3907C22.8295 19.7663 24.6163 18.7759 25.9938 19.6369L36.5689 26.2463C37.8649 27.0563 37.8649 28.9439 36.5689 29.7539L25.9938 36.3633C24.6163 37.2243 22.8295 36.2339 22.8295 34.6095Z" fill="white"/>
</svg>
